<?xml version="1.0" encoding="utf-8"?>
<!-- Generator: Adobe Illustrator 26.5.3, SVG Export Plug-In . SVG Version: 6.00 Build 0)  -->
<svg version="1.1" id="_レイヤー_1" xmlns="http://www.w3.org/2000/svg" xmlns:xlink="http://www.w3.org/1999/xlink" x="0px"
	 y="0px" viewBox="0 0 1087 768" style="enable-background:new 0 0 1087 768;" xml:space="preserve">
<style type="text/css">
	.st0{fill:#13134E;}
	.st1{fill:none;}
</style>
<g>
	<path class="st0" d="M400.2,378h568.7c5.1,0,9.2,4.1,9.2,9.2v22.7c0,5.1-4.1,9.2-9.2,9.2H400.2c-5.1,0-9.2-4.1-9.2-9.2v-22.7
		C391,382.1,395.1,378,400.2,378z"/>
	<path class="st0" d="M400.2,493h568.7c5.1,0,9.2,4.1,9.2,9.2v22.7c0,5.1-4.1,9.2-9.2,9.2H400.2c-5.1,0-9.2-4.1-9.2-9.2v-22.7
		C391,497.1,395.1,493,400.2,493z"/>
	<path class="st0" d="M400.2,607h568.7c5.1,0,9.2,4.1,9.2,9.2v22.7c0,5.1-4.1,9.2-9.2,9.2H400.2c-5.1,0-9.2-4.1-9.2-9.2v-22.7
		C391,611.1,395.1,607,400.2,607z"/>
	<path class="st0" d="M424.4,295.9h30l3.9,17H478l-27.5-111.5h-21.4l-28.6,111.5h19.8L424.4,295.9z M439.2,233.8h1l10.4,45.6h-22.3
		L439.2,233.8z"/>
	<path class="st0" d="M560.8,293h409.4c4.3,0,7.8,3.5,7.8,7.8v25.4c0,4.3-3.5,7.8-7.8,7.8H560.8c-4.3,0-7.8-3.5-7.8-7.8v-25.4
		C553,296.5,556.5,293,560.8,293z"/>
	<path class="st0" d="M560.8,208h409.4c4.3,0,7.8,3.5,7.8,7.8v25.4c0,4.3-3.5,7.8-7.8,7.8H560.8c-4.3,0-7.8-3.5-7.8-7.8v-25.4
		C553,211.5,556.5,208,560.8,208z"/>
	<rect x="0" y="0" class="st1" width="1087" height="768"/>
	<path class="st0" d="M1033.9,0H55.2C25.3,0,1.1,24.2,1.1,54.1v659.7c-0.1,30,24.1,54.2,54,54.2h978.7c29.9,0,54.1-24.2,54.1-54.1
		V54.2C1088,24.2,1063.8,0,1033.9,0z M906,67.2c0-11.7,9.5-21.2,21.2-21.2h81.5c11.7,0,21.2,9.5,21.2,21.2v28.5
		c0,11.7-9.5,21.2-21.2,21.2h-81.5c-11.7,0-21.2-9.5-21.2-21.2V67.2z M272,490.4c0,17.4-14.1,31.6-31.6,31.6H74.5
		c-17.4,0-31.6-14.1-31.6-31.6V180.5c0-17.4,14.1-31.6,31.6-31.6h165.9c17.4,0,31.6,14.1,31.6,31.6V490.4z M319,97.7
		c0,10.6-8.6,19.3-19.3,19.3H62.2c-10.6,0-19.3-8.6-19.3-19.3V65.2c0-10.6,8.6-19.3,19.3-19.3h237.5c10.6,0,19.3,8.6,19.3,19.3V97.7
		z M1048,695c0,14.9-12.1,27-27,27H363c-14.9,0-27-12.1-27-27V176c0-14.9,12.1-27,27-27h658c14.9,0,27,12.1,27,27V695z"/>
</g>
</svg>
