<?xml version="1.0" encoding="UTF-8"?><svg id="_レイヤー_1" xmlns="http://www.w3.org/2000/svg" viewBox="0 0 500 500"><defs><style>.cls-1{fill:#a3a2ce;}</style></defs><path class="cls-1" d="M186.58305,58.08456c.7216-3.10435,3.50172-5.26992,6.67846-5.23449l154.44488,2.11782c2.38274,.02387,4.58452,1.31151,5.76357,3.39314,1.19137,2.05776,1.21525,4.62071,.03619,6.70234l-61.09193,108.35792c-1.20369,2.15402-1.15518,4.81324,.14477,6.90718,1.29995,2.1055,3.64575,3.3092,6.10087,3.20062l60.94791-3.22526c2.70773-.14478,5.24681,1.34771,6.43742,3.79052s.80631,5.34308-.96265,7.41239l-219.92955,253.30955c-2.21409,2.56296-5.98074,3.08047-8.80861,1.22756-2.8402-1.86522-3.87446-5.49941-2.41894-8.56756l80.45423-169.67858c1.1313-2.38274,.77012-5.1983-.9149-7.23217-1.69657-2.03388-4.4043-2.87563-6.95494-2.19021l-60.29793,16.23255c-2.29803,.61378-4.75317-.02388-6.46206-1.68501-1.70889-1.64882-2.43049-4.09163-1.8891-6.40198L186.58305,58.08456Z"/></svg>