<?xml version="1.0" encoding="UTF-8"?><svg id="_レイヤー_1" xmlns="http://www.w3.org/2000/svg" viewBox="0 0 500 500"><defs><style>.cls-1{fill:#a3a2ce;}</style></defs><path class="cls-1" d="M410.2171,180.78726l-118.48547,118.48547c-.80133,.80133-1.37554,1.80105-1.66394,2.89698l-9.3811,35.64818c-.94417,3.58785,2.18406,6.93014,5.82647,6.22516l39.23326-7.59353c1.25391-.24269,2.40654-.85496,3.30964-1.75806l118.12657-118.12657c2.53808-2.53808,2.49321-6.66675-.09943-9.14907l-27.91366-26.72585c-2.51416-2.40717-6.49109-2.36395-8.95234,.0973Z"/><path class="cls-1" d="M426.3949,173.87559l26.94659,26.94659c2.2098,2.2098,5.79258,2.2098,8.00238,0l11.51559-11.51559c2.2098-2.2098,2.2098-5.79258,0-8.00238l-27.41309-27.41309c-2.27333-2.27333-5.98161-2.19825-8.16106,.16524l-11.04909,11.9821c-2.05814,2.23193-1.98811,5.69035,.15868,7.83714Z"/><path class="cls-1" d="M72.03277,138.98607h61.69082c2.33967,0,4.23635-1.89668,4.23635-4.23635v-63.40242c0-3.80219-4.62108-5.67938-7.2726-2.95429l-61.69082,63.40242c-2.61254,2.68503-.71005,7.19064,3.03625,7.19064Z"/><path class="cls-1" d="M269.57489,336.34999l13.02893-41.04614c.42932-1.35252,1.17715-2.58218,2.18047-3.5855l50.35108-50.35108c1.66206-1.66206,2.59579-3.91627,2.59579-6.2668V71.36259c0-4.89468-3.9679-8.86259-8.86259-8.86259H165.51888c-4.84073,0-8.78595,3.88403-8.86153,8.72408l-1.2202,78.10759c-.07557,4.84015-4.0208,8.72418-8.86153,8.72418H70.86259c-4.89468,0-8.86259,3.9679-8.86259,8.86259V429.00747c0,4.89468,3.9679,8.86259,8.86259,8.86259H328.86857c4.89468,0,8.86259-3.9679,8.86259-8.86259v-76.91249c0-4.28941-4.38815-7.17968-8.32903-5.48577l-29.00779,12.46816c-1.10553,.47526-2.29629,.72032-3.49969,.72032h-15.2927c-1.91755,0-3.78346-.62197-5.31753-1.77258l-2.28837-1.7163c-1.10071-.82543-1.99409-1.89593-2.6094-3.12655l-1.29143-2.58285c-.61531-1.23062-.93566-2.58768-.93566-3.96346v-7.60465c0-.90979,.14005-1.81418,.41532-2.6813Zm-54.18193,11.8292c0,1.17657-.70025,2.13028-1.56409,2.13028H117.3307c-.86385,0-1.56409-.95371-1.56409-2.13028v-16.29736c0-1.17647,.70025-2.13018,1.56409-2.13018h96.49817c.86385,0,1.56409,.95371,1.56409,2.13018v16.29736Zm20.55782-67.99894c0,1.17657-.84483,2.13028-1.88685,2.13028H117.65346c-1.04202,0-1.88685-.95371-1.88685-2.13028v-16.29736c0-1.17647,.84483-2.13018,1.88685-2.13018h116.41047c1.04202,0,1.88685,.95371,1.88685,2.13018v16.29736Zm-117.45316-67.45004c-1.50831,0-2.73101-.95371-2.73101-2.13028v-16.29736c0-1.17647,1.22271-2.13018,2.73101-2.13018h168.48876c1.50831,0,2.73101,.95371,2.73101,2.13018v16.29736c0,1.17657-1.22271,2.13028-2.73101,2.13028H118.49762Z"/></svg>