<?xml version="1.0" encoding="UTF-8"?><svg id="_レイヤー_1" xmlns="http://www.w3.org/2000/svg" viewBox="0 0 500 500"><defs><style>.cls-1{fill:#5956e9;}</style></defs><path class="cls-1" d="M61.5,145.49677v209.00646c0,46.39014,37.60664,83.99677,83.99677,83.99677h209.00646c46.39014,0,83.99677-37.60664,83.99677-83.99677V145.49677c0-46.39014-37.60664-83.99677-83.99677-83.99677H145.49677c-46.39014,0-83.99677,37.60664-83.99677,83.99677Zm132.86664,91.34448l30.88121-.00018c3.81659-.00002,6.91054-3.09399,6.91054-6.91058v-85.5199c0-3.81661,3.09397-6.91058,6.91058-6.91058h21.17877c3.81664,0,6.91064,3.094,6.91064,6.91064v85.51965c0,3.81663,3.094,6.91061,6.91062,6.91058l31.56429-.00018c6.15669-.00004,9.24002,7.44365,4.8866,11.79712l-55.63307,55.63362c-2.69874,2.69877-7.07429,2.69879-9.77306,.00005l-55.63361-55.63306c-4.35346-4.35342-1.27022-11.79714,4.88648-11.79718Zm188.68616,92.65875v32.97089c0,3.88207-3.14704,7.02911-7.02911,7.02911H124.08191c-3.88207,0-7.02911-3.14704-7.02911-7.02911v-80.94177c0-3.88207,3.14704-7.02911,7.02911-7.02911h25.94177c3.88207,0,7.02911,3.14704,7.02911,7.02911v40.94177c0,3.88207,3.14704,7.02911,7.02911,7.02911h171.94177c3.88207,0,7.02911-3.14704,7.02911-7.02911v-40.94177c0-3.88207,3.14704-7.02911,7.02911-7.02911h25.94177c3.88207,0,7.02911,3.14704,7.02911,7.02911v47.97089Z"/></svg>